<?xml version="1.0" standalone="no"?>
<!DOCTYPE svg PUBLIC "-//W3C//DTD SVG 20010904//EN"
 "http://www.w3.org/TR/2001/REC-SVG-20010904/DTD/svg10.dtd">
<svg version="1.0" xmlns="http://www.w3.org/2000/svg"
 width="512.000000pt" height="512.000000pt" viewBox="0 0 512.000000 512.000000"
 preserveAspectRatio="xMidYMid meet">
<metadata>
Created by potrace 1.14, written by Peter Selinger 2001-2017
</metadata>
<g transform="translate(0.000000,512.000000) scale(0.100000,-0.100000)"
fill="#000000" stroke="none">
<path d="M750 4860 c-11 -11 -129 -183 -262 -382 l-243 -363 0 -185 0 -185 33
-70 c44 -94 126 -171 216 -205 l66 -25 2 -1382 c3 -1311 4 -1383 21 -1400 16
-17 56 -18 555 -23 l537 -5 100 -58 c55 -32 107 -63 115 -68 29 -18 165 -95
180 -103 8 -4 24 -12 35 -19 29 -17 293 -171 340 -197 48 -28 139 -35 193 -16
20 7 75 36 122 63 47 28 130 76 185 108 55 32 190 110 300 174 l200 116 538 5
538 5 19 25 c19 24 20 60 20 1401 l0 1377 52 17 c102 33 183 109 235 221 27
58 28 63 28 244 l0 185 -252 376 c-182 273 -258 378 -275 382 -12 4 -823 7
-1800 7 -1759 0 -1778 0 -1798 -20z"/>
</g>
</svg>
